<?xml version="1.0" standalone="no"?>
<!DOCTYPE svg PUBLIC "-//W3C//DTD SVG 20010904//EN"
 "http://www.w3.org/TR/2001/REC-SVG-20010904/DTD/svg10.dtd">
<svg version="1.0" xmlns="http://www.w3.org/2000/svg"
 width="1069.000000pt" height="936.000000pt" viewBox="0 0 1069.000000 936.000000"
 preserveAspectRatio="xMidYMid meet">

<g transform="translate(0.000000,936.000000) scale(0.100000,-0.100000)"
fill="#000000" stroke="none">
<path d="M5120 8760 c-1008 -67 -1917 -543 -2540 -1330 l-105 -132 -115 7
c-405 23 -843 -99 -1196 -334 -834 -554 -1130 -1643 -690 -2536 108 -219 240
-400 410 -562 300 -288 650 -465 1051 -533 l100 -17 5 -1219 5 -1219 27 -57
c54 -116 157 -187 284 -196 66 -4 87 0 270 56 1789 549 3562 548 5417 -2 216
-64 279 -70 374 -34 69 25 147 99 183 173 l25 50 5 1224 5 1224 100 17 c400
68 752 246 1047 529 179 171 313 355 418 573 479 993 68 2174 -925 2663 -285
141 -656 217 -965 200 l-115 -7 -105 134 c-122 155 -392 429 -535 544 -479
382 -995 621 -1585 733 -240 45 -605 67 -850 51z m445 -875 c308 -35 623 -116
930 -237 293 -116 646 -379 893 -666 l54 -62 -64 -27 c-433 -185 -770 -520
-953 -949 -45 -105 -89 -238 -83 -255 2 -5 27 22 55 59 250 327 698 620 1125
737 202 54 283 66 503 72 184 5 225 3 334 -16 664 -113 1061 -596 1061 -1291
0 -278 -76 -527 -232 -762 -74 -112 -241 -282 -349 -355 -149 -102 -348 -187
-510 -218 l-70 -13 -12 32 c-7 17 -96 262 -198 543 -101 282 -187 513 -191
513 -5 0 -8 -553 -8 -1230 l0 -1229 -42 15 c-147 52 -573 162 -826 213 -1214
248 -2463 224 -3668 -70 -139 -33 -423 -114 -476 -134 -17 -7 -18 16 -18 403
l0 410 65 11 c259 45 618 236 834 445 58 56 155 175 149 182 -2 1 -57 -19
-123 -45 -314 -126 -597 -181 -927 -181 -345 0 -636 69 -883 211 -353 202
-566 502 -657 923 -30 139 -33 487 -5 614 40 181 117 361 220 511 66 98 240
272 338 338 191 131 425 217 647 239 l73 7 -56 -87 c-99 -151 -178 -346 -226
-551 -22 -96 -39 -385 -23 -385 5 0 26 42 48 93 56 133 193 398 281 545 265
441 609 828 982 1104 200 149 418 271 647 363 252 101 458 151 771 188 89 11
473 6 590 -8z m235 -5606 c427 -27 809 -82 1229 -175 204 -46 570 -147 731
-202 l85 -29 3 -183 c2 -171 1 -182 -15 -177 -988 280 -1780 391 -2673 374
-650 -13 -1226 -88 -1850 -242 -164 -41 -431 -114 -474 -131 -14 -5 -16 14
-16 184 l0 190 138 46 c866 285 1876 408 2842 345z"/>
</g>
</svg>
